<svg width="980" height="560" viewBox="0 0 980 560" fill="none" xmlns="http://www.w3.org/2000/svg">
  <defs>
    <linearGradient id="bgGlow" x1="490" y1="0" x2="490" y2="560" gradientUnits="userSpaceOnUse">
      <stop stop-color="#E0F7FF"/>
      <stop offset="1" stop-color="#D1F0FF"/>
    </linearGradient>
    <linearGradient id="dress" x1="0" y1="0" x2="0" y2="1">
      <stop stop-color="#38BDF8"/>
      <stop offset="1" stop-color="#0284C7"/>
    </linearGradient>
  </defs>

  <ellipse cx="490" cy="500" rx="320" ry="46" fill="#94DFFF" fill-opacity="0.35"/>

  <g transform="translate(215 82)">
    <rect x="32" y="124" width="176" height="228" rx="88" fill="url(#dress)"/>
    <circle cx="120" cy="82" r="58" fill="#F7D6BE"/>
    <path d="M66 86C66 48 93 24 120 24C147 24 174 48 174 86V98H66V86Z" fill="#0F1B2D"/>
    <rect x="78" y="178" width="84" height="128" rx="40" fill="#0EA5E9" fill-opacity="0.28"/>
    <rect x="8" y="186" width="72" height="34" rx="17" transform="rotate(-18 8 186)" fill="#FFE45A"/>
    <rect x="160" y="186" width="72" height="34" rx="17" transform="rotate(16 160 186)" fill="#FFE45A"/>
    <rect x="78" y="218" width="84" height="12" rx="6" fill="#BAE6FD"/>
    <rect x="95" y="242" width="50" height="10" rx="5" fill="#BAE6FD"/>
    <text x="120" y="160" text-anchor="middle" font-size="30" font-family="Arial, sans-serif" font-weight="700" fill="white">Tappit</text>
  </g>

  <g transform="translate(545 92)">
    <rect x="24" y="124" width="176" height="228" rx="88" fill="url(#dress)"/>
    <circle cx="112" cy="82" r="58" fill="#EEC4A2"/>
    <path d="M58 88C58 50 85 24 112 24C139 24 166 50 166 88V100H58V88Z" fill="#0F1B2D"/>
    <rect x="70" y="180" width="84" height="126" rx="40" fill="#0EA5E9" fill-opacity="0.26"/>
    <rect x="2" y="190" width="72" height="34" rx="17" transform="rotate(-14 2 190)" fill="#FFE45A"/>
    <rect x="154" y="190" width="72" height="34" rx="17" transform="rotate(14 154 190)" fill="#FFE45A"/>
    <rect x="70" y="220" width="84" height="12" rx="6" fill="#BAE6FD"/>
    <rect x="87" y="244" width="50" height="10" rx="5" fill="#BAE6FD"/>
    <text x="112" y="160" text-anchor="middle" font-size="30" font-family="Arial, sans-serif" font-weight="700" fill="white">Tappit</text>
  </g>

  <circle cx="194" cy="96" r="14" fill="#BAE6FD"/>
  <circle cx="820" cy="82" r="11" fill="#BAE6FD"/>
  <circle cx="874" cy="156" r="8" fill="#BAE6FD"/>
  <circle cx="128" cy="184" r="7" fill="#BAE6FD"/>
</svg>
